  0
SECTION
  2
HEADER
  9
$LIMMIN
 10
0
 20
0
  9
$LIMMAX
 10
297
 20
210
  9
$EXTMIN
 10
31.75
 20
9.75
  9
$EXTMAX
 10
194.75
 20
97.5
  0
ENDSEC
  0
SECTION
  2
TABLES
  0
TABLE
  2
LTYPE
 70
9
  0
LTYPE
  2
AUSGEZOGEN
 70
64
  3
Ausgezogene Linie
 72
65
 73
0
 40
0.0
  0
LTYPE
  2
GESTRICHELT
 70
0
  3
__ __ __ __ __ __ __ __ __ __ __ __ __ __ __
 72
65
 73
2
 40
3
 49
2
 49
-1
  0
LTYPE
  2
STRICHPUNKTIERT
 70
0
  3
__ . __ . __ . __ . __ . __ . __ . __ . __ .
 72
65
 73
4
 40
8
 49
4
 49
-2
 49
0
 49
-2
  0
ENDTAB
  0
TABLE
  2
LAYER
 70
10
  0
LAYER
  2
1
 70
0
 62
7
  6
AUSGEZOGEN
  0
LAYER
  2
LINES
 70
0
 62
7
  6
AUSGEZOGEN
  0
LAYER
  2
CONNECTIONS
 70
0
 62
-7
  6
AUSGEZOGEN
  0
LAYER
  2
TEXT
 70
0
 62
7
  6
AUSGEZOGEN
  0
LAYER
  2
TCONNECTIONS
 70
0
 62
7
  6
AUSGEZOGEN
  0
ENDTAB
  0
ENDSEC
  0
SECTION
  2
BLOCKS
  0
BLOCK
  8
0
  2
B1
 70
0
 10
0
 20
0
  0
LINE
  8
LINES
 62
7
 10
50.75
 20
13.75
 11
50.75
 21
13.75
  0
LINE
  8
LINES
 62
7
 10
50.75
 20
13.75
 11
56.75
 21
13.75
  0
LINE
  8
LINES
 62
7
 10
56.75
 20
13.75
 11
56.75
 21
13.75
  0
LINE
  8
LINES
 62
7
 10
82.25
 20
67.75
 11
82.25
 21
67.75
  0
LINE
  8
LINES
 62
7
 10
82.25
 20
67.75
 11
82.25
 21
67.75
  0
LINE
  8
LINES
 62
7
 10
82.25
 20
67.75
 11
82.25
 21
67.75
  0
LINE
  8
LINES
 62
7
 10
94.25
 20
67.75
 11
94.25
 21
67.75
  0
LINE
  8
LINES
 62
7
 10
94.25
 20
67.75
 11
94.25
 21
67.75
  0
LINE
  8
LINES
 62
7
 10
94.25
 20
67.75
 11
94.25
 21
67.75
  0
LINE
  8
LINES
 62
7
 10
82.25
 20
52.75
 11
82.25
 21
48.25
  0
LINE
  8
LINES
 62
7
 10
82.25
 20
48.25
 11
86.75
 21
48.25
  0
LINE
  8
LINES
 62
7
 10
86.75
 20
48.25
 11
86.75
 21
42.25
  0
LINE
  8
LINES
 62
7
 10
94.25
 20
52.75
 11
94.25
 21
48.25
  0
LINE
  8
LINES
 62
7
 10
92.75
 20
48.25
 11
94.25
 21
48.25
  0
LINE
  8
LINES
 62
7
 10
92.75
 20
48.25
 11
92.75
 21
42.25
  0
LINE
  8
LINES
 62
7
 10
89.75
 20
33.25
 11
89.75
 21
33.25
  0
LINE
  8
LINES
 62
7
 10
89.75
 20
33.25
 11
89.75
 21
33.25
  0
LINE
  8
LINES
 62
7
 10
89.75
 20
33.25
 11
89.75
 21
31.75
  0
LINE
  8
LINES
 62
7
 10
148.25
 20
67.75
 11
148.25
 21
67.75
  0
LINE
  8
LINES
 62
7
 10
148.25
 20
67.75
 11
148.25
 21
67.75
  0
LINE
  8
LINES
 62
7
 10
148.25
 20
67.75
 11
148.25
 21
67.75
  0
LINE
  8
LINES
 62
7
 10
160.25
 20
67.75
 11
160.25
 21
67.75
  0
LINE
  8
LINES
 62
7
 10
160.25
 20
67.75
 11
160.25
 21
67.75
  0
LINE
  8
LINES
 62
7
 10
160.25
 20
67.75
 11
160.25
 21
67.75
  0
LINE
  8
LINES
 62
7
 10
148.25
 20
52.75
 11
148.25
 21
48.25
  0
LINE
  8
LINES
 62
7
 10
148.25
 20
48.25
 11
152.75
 21
48.25
  0
LINE
  8
LINES
 62
7
 10
152.75
 20
48.25
 11
152.75
 21
42.25
  0
LINE
  8
LINES
 62
7
 10
160.25
 20
52.75
 11
160.25
 21
48.25
  0
LINE
  8
LINES
 62
7
 10
158.75
 20
48.25
 11
160.25
 21
48.25
  0
LINE
  8
LINES
 62
7
 10
158.75
 20
48.25
 11
158.75
 21
42.25
  0
LINE
  8
LINES
 62
7
 10
155.75
 20
33.25
 11
155.75
 21
33.25
  0
LINE
  8
LINES
 62
7
 10
155.75
 20
33.25
 11
155.75
 21
12.25
  0
LINE
  8
LINES
 62
7
 10
89.75
 20
12.25
 11
155.75
 21
12.25
  0
LINE
  8
LINES
 62
7
 10
80.75
 20
12.25
 11
89.75
 21
12.25
  0
LINE
  8
LINES
 62
7
 10
80.75
 20
12.25
 11
80.75
 21
12.25
  0
LINE
  8
LINES
 62
7
 10
71.75
 20
12.25
 11
80.75
 21
12.25
  0
LINE
  8
LINES
 62
7
 10
89.75
 20
12.25
 11
89.75
 21
16.75
  0
LINE
  8
LINES
 62
7
 10
89.75
 20
16.75
 11
89.75
 21
16.75
  0
ENDBLK
  8
0
  0
BLOCK
  8
0
  2
B2
 70
0
 10
0
 20
0
  0
ARC
  8
1
 62
7
 10
5.25
 20
3.00024414063
 40
3
 50
450
 51
280
  0
ARC
  8
1
 62
7
 10
11.25
 20
3.00024414063
 40
3
 50
270
 51
450
  0
LINE
  8
1
 62
7
 10
5.25
 20
6.00024414063
 11
11.25
 21
6.00024414063
  0
LINE
  8
1
 62
7
 10
5.25
 20
0.000244140625
 11
11.2475585938
 21
0.000244140625
  0
LINE
  8
1
 62
7
 10
16.5
 20
3.00024414063
 11
14.25
 21
3.00024414063
  0
ENDBLK
  8
0
  0
BLOCK
  8
0
  2
B3
 70
0
 10
0
 20
0
  0
LINE
  8
1
 62
7
 10
1
 20
2
 11
1
 21
0
  0
LINE
  8
1
 62
7
 10
13
 20
2
 11
13
 21
0
  0
LINE
  8
1
 62
7
 10
14
 20
8
 11
14
 21
5.75
  0
LINE
  8
1
 62
7
 10
14
 20
4.25
 11
14
 21
2
  0
LINE
  8
1
 62
7
 10
0
 20
8
 11
0
 21
2
  0
LINE
  8
1
 62
7
 10
0
 20
8
 11
14
 21
8
  0
LINE
  8
1
 62
7
 10
0
 20
2
 11
14
 21
2
  0
LINE
  8
1
 62
7
 10
18.8498535156
 20
4.25
 11
4.09985351563
 21
4.25
  0
LINE
  8
1
 62
7
 10
18.8498535156
 20
5.75
 11
18.8498535156
 21
4.25
  0
LINE
  8
1
 62
7
 10
4.09985351563
 20
5.75
 11
18.8498535156
 21
5.75
  0
LINE
  8
1
 62
7
 10
1.09985351563
 20
8
 11
1.09985351563
 21
2
  0
LINE
  8
1
 62
7
 10
4.09985351563
 20
8
 11
4.09985351563
 21
2
  0
SOLID
  8
1
 62
7
 10
1.59985351563
 20
3.25
 11
1.59985351563
 21
6.75
 12
2.34985351563
 22
3.25
 13
2.34985351563
 23
6.75
  0
SOLID
  8
1
 62
7
 10
1.59985351563
 20
6
 11
1.59985351563
 21
6.75
 12
3.34985351563
 22
6
 13
3.34985351563
 23
6.75
  0
SOLID
  8
1
 62
7
 10
1.59985351563
 20
3.25
 11
1.59985351563
 21
4
 12
3.34985351563
 22
3.25
 13
3.34985351563
 23
4
  0
TEXT
  8
1
 62
7
 40
1.5
  1
1A1
  7
STANDARD
 72
1
 10
7
 20
-1.60693359375
 11
7
 21
-1.60693359375
  0
ENDBLK
  8
0
  0
BLOCK
  8
0
  2
B4
 70
0
 10
0
 20
0
  0
LINE
  8
1
 62
7
 10
2.54760742188
 20
-0.000244140625
 11
2.54760742188
 21
4.49975585938
  0
LINE
  8
1
 62
7
  6
STRICHPUNKTIERT
 10
1.04760742188
 20
2.99975585938
 11
7.04760742188
 21
2.99975585938
  0
LINE
  8
1
 62
7
  6
STRICHPUNKTIERT
 10
1.04760742188
 20
2.99975585938
 11
7.04760742188
 21
2.99975585938
  0
LINE
  8
1
 62
7
  6
STRICHPUNKTIERT
 10
7.04760742188
 20
2.99975585938
 11
7.04760742188
 21
11.9997558594
  0
LINE
  8
1
 62
7
  6
STRICHPUNKTIERT
 10
7.04760742188
 20
2.99975585938
 11
7.04760742188
 21
11.9997558594
  0
LINE
  8
1
 62
7
  6
STRICHPUNKTIERT
 10
1.04760742188
 20
2.99975585938
 11
1.04760742188
 21
11.9997558594
  0
LINE
  8
1
 62
7
  6
STRICHPUNKTIERT
 10
1.04760742188
 20
2.99975585938
 11
1.04760742188
 21
11.9997558594
  0
LINE
  8
1
 62
7
  6
STRICHPUNKTIERT
 10
1.04760742188
 20
11.9997558594
 11
7.04760742188
 21
11.9997558594
  0
LINE
  8
1
 62
7
  6
STRICHPUNKTIERT
 10
1.04760742188
 20
11.9997558594
 11
7.04760742188
 21
11.9997558594
  0
LINE
  8
1
 62
7
 10
2.54760742188
 20
10.4997558594
 11
2.54760742188
 21
14.9997558594
  0
LINE
  8
1
 62
7
 10
1.42260742188
 20
8.24975585938
 11
3.67260742188
 21
6.37475585938
  0
LINE
  8
1
 62
7
 10
2.54760742188
 20
4.49975585938
 11
5.54760742188
 21
4.49975585938
  0
LINE
  8
1
 62
7
 10
2.54760742188
 20
10.4997558594
 11
5.54760742188
 21
10.4997558594
  0
ARC
  8
1
 62
7
 10
5.7412109375
 20
7.59155273438
 40
3.06420898438
 50
144
 51
216
  0
LINE
  8
1
 62
7
 10
5.54760742188
 20
4.49975585938
 11
5.54760742188
 21
6.74975585938
  0
LINE
  8
1
 62
7
 10
5.54760742188
 20
8.62475585938
 11
6.51733398438
 21
7.46630859375
  0
LINE
  8
1
 62
7
 10
4.57763671875
 20
7.46630859375
 11
5.54760742188
 21
8.62475585938
  0
CIRCLE
  8
1
 62
7
 10
5.54760742188
 20
7.49975585938
 40
0.75
  0
LINE
  8
1
 62
7
 10
5.54760742188
 20
8.62475585938
 11
5.54760742188
 21
10.4997558594
  0
LINE
  8
1
 62
7
 10
1.42260742188
 20
8.24975585938
 11
1.9296875
 21
7.35180664063
  0
LINE
  8
1
 62
7
 10
1.9296875
 20
7.35180664063
 11
2.31616210938
 21
7.8564453125
  0
LINE
  8
1
 62
7
 10
1.42260742188
 20
8.24975585938
 11
2.31616210938
 21
7.8564453125
  0
LINE
  8
1
 62
7
 10
2.54760742188
 20
4.49975585938
 11
2.54760742188
 21
10.4997558594
  0
SOLID
  8
1
 62
7
 10
1.42260742188
 20
8.24975585938
 11
1.9296875
 21
7.35180664063
 12
1.42260742188
 22
8.24975585938
 13
2.30712890625
 23
7.8603515625
  0
ARC
  8
1
 62
7
 10
-0.685791015625
 20
7.59155273438
 40
3.06420898438
 50
323
 51
395
  0
POLYLINE
  8
1
 62
7
 70
1
 66
1
 40
0.1875
 41
0.1875
  0
VERTEX
  8
1
 10
2.45385742188
 20
4.49975585938
 42
1
  0
VERTEX
  8
1
 10
2.64135742188
 20
4.49975585938
 42
1
  0
SEQEND
  8
1
  0
POLYLINE
  8
1
 62
7
 70
1
 66
1
 40
0.1875
 41
0.1875
  0
VERTEX
  8
1
 10
2.45385742188
 20
10.4997558594
 42
1
  0
VERTEX
  8
1
 10
2.64135742188
 20
10.4997558594
 42
1
  0
SEQEND
  8
1
  0
ENDBLK
  8
0
  0
BLOCK
  8
0
  2
B5
 70
0
 10
0
 20
0
  0
LINE
  8
1
 62
7
 10
2.54760742188
 20
-0.000244140625
 11
2.54760742188
 21
4.49975585938
  0
LINE
  8
1
 62
7
  6
STRICHPUNKTIERT
 10
1.04760742188
 20
2.99975585938
 11
7.04760742188
 21
2.99975585938
  0
LINE
  8
1
 62
7
  6
STRICHPUNKTIERT
 10
1.04760742188
 20
2.99975585938
 11
7.04760742188
 21
2.99975585938
  0
LINE
  8
1
 62
7
  6
STRICHPUNKTIERT
 10
7.04760742188
 20
2.99975585938
 11
7.04760742188
 21
11.9997558594
  0
LINE
  8
1
 62
7
  6
STRICHPUNKTIERT
 10
7.04760742188
 20
2.99975585938
 11
7.04760742188
 21
11.9997558594
  0
LINE
  8
1
 62
7
  6
STRICHPUNKTIERT
 10
1.04760742188
 20
2.99975585938
 11
1.04760742188
 21
11.9997558594
  0
LINE
  8
1
 62
7
  6
STRICHPUNKTIERT
 10
1.04760742188
 20
2.99975585938
 11
1.04760742188
 21
11.9997558594
  0
LINE
  8
1
 62
7
  6
STRICHPUNKTIERT
 10
1.04760742188
 20
11.9997558594
 11
7.04760742188
 21
11.9997558594
  0
LINE
  8
1
 62
7
  6
STRICHPUNKTIERT
 10
1.04760742188
 20
11.9997558594
 11
7.04760742188
 21
11.9997558594
  0
LINE
  8
1
 62
7
 10
2.54760742188
 20
10.4997558594
 11
2.54760742188
 21
14.9997558594
  0
LINE
  8
1
 62
7
 10
1.42260742188
 20
8.24975585938
 11
3.67260742188
 21
6.37475585938
  0
LINE
  8
1
 62
7
 10
2.54760742188
 20
4.49975585938
 11
5.54760742188
 21
4.49975585938
  0
LINE
  8
1
 62
7
 10
2.54760742188
 20
10.4997558594
 11
5.54760742188
 21
10.4997558594
  0
ARC
  8
1
 62
7
 10
5.7412109375
 20
7.59155273438
 40
3.06420898438
 50
144
 51
216
  0
LINE
  8
1
 62
7
 10
5.54760742188
 20
4.49975585938
 11
5.54760742188
 21
6.74975585938
  0
LINE
  8
1
 62
7
 10
5.54760742188
 20
8.62475585938
 11
6.51733398438
 21
7.46630859375
  0
LINE
  8
1
 62
7
 10
4.57763671875
 20
7.46630859375
 11
5.54760742188
 21
8.62475585938
  0
CIRCLE
  8
1
 62
7
 10
5.54760742188
 20
7.49975585938
 40
0.75
  0
LINE
  8
1
 62
7
 10
5.54760742188
 20
8.62475585938
 11
5.54760742188
 21
10.4997558594
  0
LINE
  8
1
 62
7
 10
1.42260742188
 20
8.24975585938
 11
1.9296875
 21
7.35180664063
  0
LINE
  8
1
 62
7
 10
1.9296875
 20
7.35180664063
 11
2.31616210938
 21
7.8564453125
  0
LINE
  8
1
 62
7
 10
1.42260742188
 20
8.24975585938
 11
2.31616210938
 21
7.8564453125
  0
LINE
  8
1
 62
7
 10
2.54760742188
 20
4.49975585938
 11
2.54760742188
 21
10.4997558594
  0
SOLID
  8
1
 62
7
 10
1.42260742188
 20
8.24975585938
 11
1.9296875
 21
7.35180664063
 12
1.42260742188
 22
8.24975585938
 13
2.30712890625
 23
7.8603515625
  0
ARC
  8
1
 62
7
 10
-0.685791015625
 20
7.59155273438
 40
3.06420898438
 50
323
 51
395
  0
POLYLINE
  8
1
 62
7
 70
1
 66
1
 40
0.1875
 41
0.1875
  0
VERTEX
  8
1
 10
2.45385742188
 20
4.49975585938
 42
1
  0
VERTEX
  8
1
 10
2.64135742188
 20
4.49975585938
 42
1
  0
SEQEND
  8
1
  0
POLYLINE
  8
1
 62
7
 70
1
 66
1
 40
0.1875
 41
0.1875
  0
VERTEX
  8
1
 10
2.45385742188
 20
10.4997558594
 42
1
  0
VERTEX
  8
1
 10
2.64135742188
 20
10.4997558594
 42
1
  0
SEQEND
  8
1
  0
ENDBLK
  8
0
  0
BLOCK
  8
0
  2
B6
 70
0
 10
0
 20
0
  0
LINE
  8
1
 62
7
 10
0
 20
1.5
 11
0
 21
4.5
  0
LINE
  8
1
 62
7
 10
3
 20
4.5
 11
1.5
 21
1.5
  0
LINE
  8
1
 62
7
 10
4.5
 20
1.5
 11
0
 21
1.5
  0
LINE
  8
1
 62
7
 10
0
 20
4.5
 11
4.5
 21
4.5
  0
LINE
  8
1
 62
7
 10
5.5
 20
3
 11
6.5
 21
3
  0
LINE
  8
1
 62
7
 10
6
 20
3
 11
6
 21
1.5
  0
LINE
  8
1
 62
7
 10
12
 20
7.5
 11
12
 21
1.5
  0
SOLID
  8
1
 62
7
 10
12
 20
1.5
 11
12.5
 21
3.5
 12
12
 22
1.5
 13
11.5
 23
3.5
  0
LINE
  8
1
 62
7
 10
9
 20
1.5
 11
6
 21
7.5
  0
SOLID
  8
1
 62
7
 10
6
 20
7.5
 11
6.44702148438
 21
5.48754882813
 12
6
 22
7.5
 13
7.34130859375
 23
5.93481445313
  0
LINE
  8
1
 62
7
 10
4.5
 20
1.5
 11
4.5
 21
7.5
  0
LINE
  8
1
 62
7
 10
4.5
 20
7.5
 11
13.5
 21
7.5
  0
LINE
  8
1
 62
7
 10
13.5
 20
7.5
 11
13.5
 21
1.5
  0
LINE
  8
1
 62
7
 10
13.5
 20
1.5
 11
4.5
 21
1.5
  0
LINE
  8
1
 62
7
 10
15
 20
7.5
 11
15
 21
1.5
  0
SOLID
  8
1
 62
7
 10
15
 20
1.5
 11
14.5
 21
3.5
 12
15
 22
1.5
 13
15.5
 23
3.5
  0
LINE
  8
1
 62
7
 10
21.5
 20
3
 11
20.5
 21
3
  0
LINE
  8
1
 62
7
 10
21
 20
3
 11
21
 21
1.5
  0
LINE
  8
1
 62
7
 10
18
 20
1.5
 11
21
 21
7.5
  0
SOLID
  8
1
 62
7
 10
21
 20
7.5
 11
20.552734375
 21
5.48754882813
 12
21
 22
7.5
 13
19.6584472656
 23
5.93481445313
  0
LINE
  8
1
 62
7
 10
13.5
 20
1.5
 11
13.5
 21
7.5
  0
LINE
  8
1
 62
7
 10
13.5
 20
7.5
 11
22.5
 21
7.5
  0
LINE
  8
1
 62
7
 10
22.5
 20
7.5
 11
22.5
 21
1.5
  0
LINE
  8
1
 62
7
 10
22.5
 20
1.5
 11
13.5
 21
1.5
  0
LINE
  8
1
 62
7
 10
27
 20
1.5
 11
27
 21
4.5
  0
LINE
  8
1
 62
7
 10
24
 20
4.5
 11
25.5
 21
1.5
  0
LINE
  8
1
 62
7
 10
22.5
 20
1.5
 11
27
 21
1.5
  0
LINE
  8
1
 62
7
 10
27
 20
4.5
 11
22.5
 21
4.5
  0
TEXT
  8
1
 62
7
 40
1.5
  1
4
  7
STANDARD
 72
1
 10
12.5
 20
9.14282226563
 11
12.5
 21
9.14282226563
  0
LINE
  8
1
 62
7
 10
15
 20
9
 11
15
 21
7.5
  0
TEXT
  8
1
 62
7
 40
1.5
  1
2
  7
STANDARD
 72
1
 10
24
 20
9.14282226563
 11
24
 21
9.14282226563
  0
LINE
  8
1
 62
7
 10
21
 20
9
 11
21
 21
7.5
  0
TEXT
  8
1
 62
7
 40
1.5
  1
5
  7
STANDARD
 72
1
 10
12.5
 20
-1.85693359375
 11
12.5
 21
-1.85693359375
  0
LINE
  8
1
 62
7
 10
14
 20
1.5
 11
15
 21
-0.25
  0
LINE
  8
1
 62
7
 10
16
 20
1.5
 11
15
 21
-0.25
  0
LINE
  8
1
 62
7
 10
14
 20
1.5
 11
16
 21
1.5
  0
TEXT
  8
1
 62
7
 40
1.5
  1
1
  7
STANDARD
 72
1
 10
19.75
 20
-5.60693359375
 11
19.75
 21
-5.60693359375
  0
LINE
  8
1
 62
7
 10
18
 20
0
 11
18
 21
1.5
  0
TEXT
  8
1
 62
7
 40
1.5
  1
3
  7
STANDARD
 72
1
 10
24
 20
-1.85693359375
 11
24
 21
-1.85693359375
  0
LINE
  8
1
 62
7
 10
20
 20
1.5
 11
21
 21
-0.25
  0
LINE
  8
1
 62
7
 10
22
 20
1.5
 11
21
 21
-0.25
  0
LINE
  8
1
 62
7
 10
20
 20
1.5
 11
22
 21
1.5
  0
ENDBLK
  8
0
  0
BLOCK
  8
0
  2
B7
 70
0
 10
0
 20
0
  0
LINE
  8
1
 62
7
 10
1
 20
2
 11
1
 21
0
  0
LINE
  8
1
 62
7
 10
13
 20
2
 11
13
 21
0
  0
LINE
  8
1
 62
7
 10
14
 20
8
 11
14
 21
5.75
  0
LINE
  8
1
 62
7
 10
14
 20
4.25
 11
14
 21
2
  0
LINE
  8
1
 62
7
 10
0
 20
8
 11
0
 21
2
  0
LINE
  8
1
 62
7
 10
0
 20
8
 11
14
 21
8
  0
LINE
  8
1
 62
7
 10
0
 20
2
 11
14
 21
2
  0
LINE
  8
1
 62
7
 10
18.8498535156
 20
4.25
 11
4.09985351563
 21
4.25
  0
LINE
  8
1
 62
7
 10
18.8498535156
 20
5.75
 11
18.8498535156
 21
4.25
  0
LINE
  8
1
 62
7
 10
4.09985351563
 20
5.75
 11
18.8498535156
 21
5.75
  0
LINE
  8
1
 62
7
 10
1.09985351563
 20
8
 11
1.09985351563
 21
2
  0
LINE
  8
1
 62
7
 10
4.09985351563
 20
8
 11
4.09985351563
 21
2
  0
SOLID
  8
1
 62
7
 10
1.59985351563
 20
3.25
 11
1.59985351563
 21
6.75
 12
2.34985351563
 22
3.25
 13
2.34985351563
 23
6.75
  0
SOLID
  8
1
 62
7
 10
1.59985351563
 20
6
 11
1.59985351563
 21
6.75
 12
3.34985351563
 22
6
 13
3.34985351563
 23
6.75
  0
SOLID
  8
1
 62
7
 10
1.59985351563
 20
3.25
 11
1.59985351563
 21
4
 12
3.34985351563
 22
3.25
 13
3.34985351563
 23
4
  0
TEXT
  8
1
 62
7
 40
1.5
  1
2A1
  7
STANDARD
 72
1
 10
7
 20
-1.60693359375
 11
7
 21
-1.60693359375
  0
ENDBLK
  8
0
  0
BLOCK
  8
0
  2
B8
 70
0
 10
0
 20
0
  0
LINE
  8
1
 62
7
 10
2.54760742188
 20
-0.000244140625
 11
2.54760742188
 21
4.49975585938
  0
LINE
  8
1
 62
7
  6
STRICHPUNKTIERT
 10
1.04760742188
 20
2.99975585938
 11
7.04760742188
 21
2.99975585938
  0
LINE
  8
1
 62
7
  6
STRICHPUNKTIERT
 10
1.04760742188
 20
2.99975585938
 11
7.04760742188
 21
2.99975585938
  0
LINE
  8
1
 62
7
  6
STRICHPUNKTIERT
 10
7.04760742188
 20
2.99975585938
 11
7.04760742188
 21
11.9997558594
  0
LINE
  8
1
 62
7
  6
STRICHPUNKTIERT
 10
7.04760742188
 20
2.99975585938
 11
7.04760742188
 21
11.9997558594
  0
LINE
  8
1
 62
7
  6
STRICHPUNKTIERT
 10
1.04760742188
 20
2.99975585938
 11
1.04760742188
 21
11.9997558594
  0
LINE
  8
1
 62
7
  6
STRICHPUNKTIERT
 10
1.04760742188
 20
2.99975585938
 11
1.04760742188
 21
11.9997558594
  0
LINE
  8
1
 62
7
  6
STRICHPUNKTIERT
 10
1.04760742188
 20
11.9997558594
 11
7.04760742188
 21
11.9997558594
  0
LINE
  8
1
 62
7
  6
STRICHPUNKTIERT
 10
1.04760742188
 20
11.9997558594
 11
7.04760742188
 21
11.9997558594
  0
LINE
  8
1
 62
7
 10
2.54760742188
 20
10.4997558594
 11
2.54760742188
 21
14.9997558594
  0
LINE
  8
1
 62
7
 10
1.42260742188
 20
8.24975585938
 11
3.67260742188
 21
6.37475585938
  0
LINE
  8
1
 62
7
 10
2.54760742188
 20
4.49975585938
 11
5.54760742188
 21
4.49975585938
  0
LINE
  8
1
 62
7
 10
2.54760742188
 20
10.4997558594
 11
5.54760742188
 21
10.4997558594
  0
ARC
  8
1
 62
7
 10
5.7412109375
 20
7.59155273438
 40
3.06420898438
 50
144
 51
216
  0
LINE
  8
1
 62
7
 10
5.54760742188
 20
4.49975585938
 11
5.54760742188
 21
6.74975585938
  0
LINE
  8
1
 62
7
 10
5.54760742188
 20
8.62475585938
 11
6.51733398438
 21
7.46630859375
  0
LINE
  8
1
 62
7
 10
4.57763671875
 20
7.46630859375
 11
5.54760742188
 21
8.62475585938
  0
CIRCLE
  8
1
 62
7
 10
5.54760742188
 20
7.49975585938
 40
0.75
  0
LINE
  8
1
 62
7
 10
5.54760742188
 20
8.62475585938
 11
5.54760742188
 21
10.4997558594
  0
LINE
  8
1
 62
7
 10
1.42260742188
 20
8.24975585938
 11
1.9296875
 21
7.35180664063
  0
LINE
  8
1
 62
7
 10
1.9296875
 20
7.35180664063
 11
2.31616210938
 21
7.8564453125
  0
LINE
  8
1
 62
7
 10
1.42260742188
 20
8.24975585938
 11
2.31616210938
 21
7.8564453125
  0
LINE
  8
1
 62
7
 10
2.54760742188
 20
4.49975585938
 11
2.54760742188
 21
10.4997558594
  0
SOLID
  8
1
 62
7
 10
1.42260742188
 20
8.24975585938
 11
1.9296875
 21
7.35180664063
 12
1.42260742188
 22
8.24975585938
 13
2.30712890625
 23
7.8603515625
  0
ARC
  8
1
 62
7
 10
-0.685791015625
 20
7.59155273438
 40
3.06420898438
 50
323
 51
395
  0
POLYLINE
  8
1
 62
7
 70
1
 66
1
 40
0.1875
 41
0.1875
  0
VERTEX
  8
1
 10
2.45385742188
 20
4.49975585938
 42
1
  0
VERTEX
  8
1
 10
2.64135742188
 20
4.49975585938
 42
1
  0
SEQEND
  8
1
  0
POLYLINE
  8
1
 62
7
 70
1
 66
1
 40
0.1875
 41
0.1875
  0
VERTEX
  8
1
 10
2.45385742188
 20
10.4997558594
 42
1
  0
VERTEX
  8
1
 10
2.64135742188
 20
10.4997558594
 42
1
  0
SEQEND
  8
1
  0
ENDBLK
  8
0
  0
BLOCK
  8
0
  2
B9
 70
0
 10
0
 20
0
  0
LINE
  8
1
 62
7
 10
2.54760742188
 20
-0.000244140625
 11
2.54760742188
 21
4.49975585938
  0
LINE
  8
1
 62
7
  6
STRICHPUNKTIERT
 10
1.04760742188
 20
2.99975585938
 11
7.04760742188
 21
2.99975585938
  0
LINE
  8
1
 62
7
  6
STRICHPUNKTIERT
 10
1.04760742188
 20
2.99975585938
 11
7.04760742188
 21
2.99975585938
  0
LINE
  8
1
 62
7
  6
STRICHPUNKTIERT
 10
7.04760742188
 20
2.99975585938
 11
7.04760742188
 21
11.9997558594
  0
LINE
  8
1
 62
7
  6
STRICHPUNKTIERT
 10
7.04760742188
 20
2.99975585938
 11
7.04760742188
 21
11.9997558594
  0
LINE
  8
1
 62
7
  6
STRICHPUNKTIERT
 10
1.04760742188
 20
2.99975585938
 11
1.04760742188
 21
11.9997558594
  0
LINE
  8
1
 62
7
  6
STRICHPUNKTIERT
 10
1.04760742188
 20
2.99975585938
 11
1.04760742188
 21
11.9997558594
  0
LINE
  8
1
 62
7
  6
STRICHPUNKTIERT
 10
1.04760742188
 20
11.9997558594
 11
7.04760742188
 21
11.9997558594
  0
LINE
  8
1
 62
7
  6
STRICHPUNKTIERT
 10
1.04760742188
 20
11.9997558594
 11
7.04760742188
 21
11.9997558594
  0
LINE
  8
1
 62
7
 10
2.54760742188
 20
10.4997558594
 11
2.54760742188
 21
14.9997558594
  0
LINE
  8
1
 62
7
 10
1.42260742188
 20
8.24975585938
 11
3.67260742188
 21
6.37475585938
  0
LINE
  8
1
 62
7
 10
2.54760742188
 20
4.49975585938
 11
5.54760742188
 21
4.49975585938
  0
LINE
  8
1
 62
7
 10
2.54760742188
 20
10.4997558594
 11
5.54760742188
 21
10.4997558594
  0
ARC
  8
1
 62
7
 10
5.7412109375
 20
7.59155273438
 40
3.06420898438
 50
144
 51
216
  0
LINE
  8
1
 62
7
 10
5.54760742188
 20
4.49975585938
 11
5.54760742188
 21
6.74975585938
  0
LINE
  8
1
 62
7
 10
5.54760742188
 20
8.62475585938
 11
6.51733398438
 21
7.46630859375
  0
LINE
  8
1
 62
7
 10
4.57763671875
 20
7.46630859375
 11
5.54760742188
 21
8.62475585938
  0
CIRCLE
  8
1
 62
7
 10
5.54760742188
 20
7.49975585938
 40
0.75
  0
LINE
  8
1
 62
7
 10
5.54760742188
 20
8.62475585938
 11
5.54760742188
 21
10.4997558594
  0
LINE
  8
1
 62
7
 10
1.42260742188
 20
8.24975585938
 11
1.9296875
 21
7.35180664063
  0
LINE
  8
1
 62
7
 10
1.9296875
 20
7.35180664063
 11
2.31616210938
 21
7.8564453125
  0
LINE
  8
1
 62
7
 10
1.42260742188
 20
8.24975585938
 11
2.31616210938
 21
7.8564453125
  0
LINE
  8
1
 62
7
 10
2.54760742188
 20
4.49975585938
 11
2.54760742188
 21
10.4997558594
  0
SOLID
  8
1
 62
7
 10
1.42260742188
 20
8.24975585938
 11
1.9296875
 21
7.35180664063
 12
1.42260742188
 22
8.24975585938
 13
2.30712890625
 23
7.8603515625
  0
ARC
  8
1
 62
7
 10
-0.685791015625
 20
7.59155273438
 40
3.06420898438
 50
323
 51
395
  0
POLYLINE
  8
1
 62
7
 70
1
 66
1
 40
0.1875
 41
0.1875
  0
VERTEX
  8
1
 10
2.45385742188
 20
4.49975585938
 42
1
  0
VERTEX
  8
1
 10
2.64135742188
 20
4.49975585938
 42
1
  0
SEQEND
  8
1
  0
POLYLINE
  8
1
 62
7
 70
1
 66
1
 40
0.1875
 41
0.1875
  0
VERTEX
  8
1
 10
2.45385742188
 20
10.4997558594
 42
1
  0
VERTEX
  8
1
 10
2.64135742188
 20
10.4997558594
 42
1
  0
SEQEND
  8
1
  0
ENDBLK
  8
0
  0
BLOCK
  8
0
  2
B10
 70
0
 10
0
 20
0
  0
LINE
  8
1
 62
7
 10
0
 20
1.5
 11
0
 21
4.5
  0
LINE
  8
1
 62
7
 10
3
 20
4.5
 11
1.5
 21
1.5
  0
LINE
  8
1
 62
7
 10
4.5
 20
1.5
 11
0
 21
1.5
  0
LINE
  8
1
 62
7
 10
0
 20
4.5
 11
4.5
 21
4.5
  0
LINE
  8
1
 62
7
 10
5.5
 20
3
 11
6.5
 21
3
  0
LINE
  8
1
 62
7
 10
6
 20
3
 11
6
 21
1.5
  0
LINE
  8
1
 62
7
 10
12
 20
7.5
 11
12
 21
1.5
  0
SOLID
  8
1
 62
7
 10
12
 20
1.5
 11
12.5
 21
3.5
 12
12
 22
1.5
 13
11.5
 23
3.5
  0
LINE
  8
1
 62
7
 10
9
 20
1.5
 11
6
 21
7.5
  0
SOLID
  8
1
 62
7
 10
6
 20
7.5
 11
6.44702148438
 21
5.48754882813
 12
6
 22
7.5
 13
7.34130859375
 23
5.93481445313
  0
LINE
  8
1
 62
7
 10
4.5
 20
1.5
 11
4.5
 21
7.5
  0
LINE
  8
1
 62
7
 10
4.5
 20
7.5
 11
13.5
 21
7.5
  0
LINE
  8
1
 62
7
 10
13.5
 20
7.5
 11
13.5
 21
1.5
  0
LINE
  8
1
 62
7
 10
13.5
 20
1.5
 11
4.5
 21
1.5
  0
LINE
  8
1
 62
7
 10
15
 20
7.5
 11
15
 21
1.5
  0
SOLID
  8
1
 62
7
 10
15
 20
1.5
 11
14.5
 21
3.5
 12
15
 22
1.5
 13
15.5
 23
3.5
  0
LINE
  8
1
 62
7
 10
21.5
 20
3
 11
20.5
 21
3
  0
LINE
  8
1
 62
7
 10
21
 20
3
 11
21
 21
1.5
  0
LINE
  8
1
 62
7
 10
18
 20
1.5
 11
21
 21
7.5
  0
SOLID
  8
1
 62
7
 10
21
 20
7.5
 11
20.552734375
 21
5.48754882813
 12
21
 22
7.5
 13
19.6584472656
 23
5.93481445313
  0
LINE
  8
1
 62
7
 10
13.5
 20
1.5
 11
13.5
 21
7.5
  0
LINE
  8
1
 62
7
 10
13.5
 20
7.5
 11
22.5
 21
7.5
  0
LINE
  8
1
 62
7
 10
22.5
 20
7.5
 11
22.5
 21
1.5
  0
LINE
  8
1
 62
7
 10
22.5
 20
1.5
 11
13.5
 21
1.5
  0
LINE
  8
1
 62
7
 10
27
 20
1.5
 11
27
 21
4.5
  0
LINE
  8
1
 62
7
 10
24
 20
4.5
 11
25.5
 21
1.5
  0
LINE
  8
1
 62
7
 10
22.5
 20
1.5
 11
27
 21
1.5
  0
LINE
  8
1
 62
7
 10
27
 20
4.5
 11
22.5
 21
4.5
  0
TEXT
  8
1
 62
7
 40
1.5
  1
4
  7
STANDARD
 72
1
 10
12.5
 20
9.14282226563
 11
12.5
 21
9.14282226563
  0
LINE
  8
1
 62
7
 10
15
 20
9
 11
15
 21
7.5
  0
TEXT
  8
1
 62
7
 40
1.5
  1
2
  7
STANDARD
 72
1
 10
24
 20
9.14282226563
 11
24
 21
9.14282226563
  0
LINE
  8
1
 62
7
 10
21
 20
9
 11
21
 21
7.5
  0
TEXT
  8
1
 62
7
 40
1.5
  1
5
  7
STANDARD
 72
1
 10
12.5
 20
-1.85693359375
 11
12.5
 21
-1.85693359375
  0
LINE
  8
1
 62
7
 10
14
 20
1.5
 11
15
 21
-0.25
  0
LINE
  8
1
 62
7
 10
16
 20
1.5
 11
15
 21
-0.25
  0
LINE
  8
1
 62
7
 10
14
 20
1.5
 11
16
 21
1.5
  0
TEXT
  8
1
 62
7
 40
1.5
  1
1
  7
STANDARD
 72
1
 10
19.75
 20
-5.60693359375
 11
19.75
 21
-5.60693359375
  0
LINE
  8
1
 62
7
 10
18
 20
0
 11
18
 21
1.5
  0
TEXT
  8
1
 62
7
 40
1.5
  1
3
  7
STANDARD
 72
1
 10
24
 20
-1.85693359375
 11
24
 21
-1.85693359375
  0
LINE
  8
1
 62
7
 10
20
 20
1.5
 11
21
 21
-0.25
  0
LINE
  8
1
 62
7
 10
22
 20
1.5
 11
21
 21
-0.25
  0
LINE
  8
1
 62
7
 10
20
 20
1.5
 11
22
 21
1.5
  0
ENDBLK
  8
0
  0
BLOCK
  8
0
  2
B11
 70
0
 10
0
 20
0
  0
LINE
  8
1
 62
7
 10
2.54760742188
 20
-0.000244140625
 11
2.54760742188
 21
4.49975585938
  0
LINE
  8
1
 62
7
  6
STRICHPUNKTIERT
 10
1.04760742188
 20
2.99975585938
 11
7.04760742188
 21
2.99975585938
  0
LINE
  8
1
 62
7
  6
STRICHPUNKTIERT
 10
1.04760742188
 20
2.99975585938
 11
7.04760742188
 21
2.99975585938
  0
LINE
  8
1
 62
7
  6
STRICHPUNKTIERT
 10
7.04760742188
 20
2.99975585938
 11
7.04760742188
 21
11.9997558594
  0
LINE
  8
1
 62
7
  6
STRICHPUNKTIERT
 10
7.04760742188
 20
2.99975585938
 11
7.04760742188
 21
11.9997558594
  0
LINE
  8
1
 62
7
  6
STRICHPUNKTIERT
 10
1.04760742188
 20
2.99975585938
 11
1.04760742188
 21
11.9997558594
  0
LINE
  8
1
 62
7
  6
STRICHPUNKTIERT
 10
1.04760742188
 20
2.99975585938
 11
1.04760742188
 21
11.9997558594
  0
LINE
  8
1
 62
7
  6
STRICHPUNKTIERT
 10
1.04760742188
 20
11.9997558594
 11
7.04760742188
 21
11.9997558594
  0
LINE
  8
1
 62
7
  6
STRICHPUNKTIERT
 10
1.04760742188
 20
11.9997558594
 11
7.04760742188
 21
11.9997558594
  0
LINE
  8
1
 62
7
 10
2.54760742188
 20
10.4997558594
 11
2.54760742188
 21
14.9997558594
  0
LINE
  8
1
 62
7
 10
1.42260742188
 20
8.24975585938
 11
3.67260742188
 21
6.37475585938
  0
LINE
  8
1
 62
7
 10
2.54760742188
 20
4.49975585938
 11
5.54760742188
 21
4.49975585938
  0
LINE
  8
1
 62
7
 10
2.54760742188
 20
10.4997558594
 11
5.54760742188
 21
10.4997558594
  0
ARC
  8
1
 62
7
 10
5.7412109375
 20
7.59155273438
 40
3.06420898438
 50
144
 51
216
  0
LINE
  8
1
 62
7
 10
5.54760742188
 20
4.49975585938
 11
5.54760742188
 21
6.74975585938
  0
LINE
  8
1
 62
7
 10
5.54760742188
 20
8.62475585938
 11
6.51733398438
 21
7.46630859375
  0
LINE
  8
1
 62
7
 10
4.57763671875
 20
7.46630859375
 11
5.54760742188
 21
8.62475585938
  0
CIRCLE
  8
1
 62
7
 10
5.54760742188
 20
7.49975585938
 40
0.75
  0
LINE
  8
1
 62
7
 10
5.54760742188
 20
8.62475585938
 11
5.54760742188
 21
10.4997558594
  0
LINE
  8
1
 62
7
 10
1.42260742188
 20
8.24975585938
 11
1.9296875
 21
7.35180664063
  0
LINE
  8
1
 62
7
 10
1.9296875
 20
7.35180664063
 11
2.31616210938
 21
7.8564453125
  0
LINE
  8
1
 62
7
 10
1.42260742188
 20
8.24975585938
 11
2.31616210938
 21
7.8564453125
  0
LINE
  8
1
 62
7
 10
2.54760742188
 20
4.49975585938
 11
2.54760742188
 21
10.4997558594
  0
SOLID
  8
1
 62
7
 10
1.42260742188
 20
8.24975585938
 11
1.9296875
 21
7.35180664063
 12
1.42260742188
 22
8.24975585938
 13
2.30712890625
 23
7.8603515625
  0
ARC
  8
1
 62
7
 10
-0.685791015625
 20
7.59155273438
 40
3.06420898438
 50
323
 51
395
  0
POLYLINE
  8
1
 62
7
 70
1
 66
1
 40
0.1875
 41
0.1875
  0
VERTEX
  8
1
 10
2.45385742188
 20
4.49975585938
 42
1
  0
VERTEX
  8
1
 10
2.64135742188
 20
4.49975585938
 42
1
  0
SEQEND
  8
1
  0
POLYLINE
  8
1
 62
7
 70
1
 66
1
 40
0.1875
 41
0.1875
  0
VERTEX
  8
1
 10
2.45385742188
 20
10.4997558594
 42
1
  0
VERTEX
  8
1
 10
2.64135742188
 20
10.4997558594
 42
1
  0
SEQEND
  8
1
  0
ENDBLK
  8
0
  0
BLOCK
  8
0
  2
B12
 70
0
 10
0
 20
0
  0
POLYLINE
  8
TCONNECTIONS
 62
7
 70
1
 66
1
 40
0.375
 41
0.375
  0
VERTEX
  8
1
 10
1.3125
 20
1.5
 42
1
  0
VERTEX
  8
1
 10
1.6875
 20
1.5
 42
1
  0
SEQEND
  8
1
  0
ENDBLK
  8
0
  0
BLOCK
  8
0
  2
B13
 70
0
 10
0
 20
0
  0
LINE
  8
1
 62
7
  6
GESTRICHELT
 10
12.7502441406
 20
15.75
 11
6.00024414063
 21
15.75
  0
LINE
  8
1
 62
7
  6
GESTRICHELT
 10
6.00024414063
 20
15.75
 11
12.7502441406
 21
15.75
  0
LINE
  8
1
 62
7
  6
GESTRICHELT
 10
6.00024414063
 20
15.75
 11
6.00024414063
 21
12.75
  0
LINE
  8
1
 62
7
  6
GESTRICHELT
 10
6.00024414063
 20
15.75
 11
6.00024414063
 21
12.75
  0
LINE
  8
1
 62
7
  6
GESTRICHELT
 10
12.7502441406
 20
15.75
 11
12.7502441406
 21
12.75
  0
LINE
  8
1
 62
7
  6
GESTRICHELT
 10
12.7502441406
 20
15.75
 11
12.7502441406
 21
12.75
  0
LINE
  8
1
 62
7
 10
3.00024414063
 20
11.25
 11
0.000244140625
 21
11.25
  0
LINE
  8
1
 62
7
 10
3.00024414063
 20
7.5
 11
1.50024414063
 21
8.25
  0
LINE
  8
1
 62
7
 10
3.00024414063
 20
9
 11
1.50024414063
 21
8.25
  0
CIRCLE
  8
1
 62
7
 10
12.0754394531
 20
5.625
 40
2.09985351563
  0
LINE
  8
1
 62
7
  6
GESTRICHELT
 10
12.7502441406
 20
12.75
 11
9.00024414063
 21
9.75
  0
LINE
  8
1
 62
7
  6
GESTRICHELT
 10
9.00024414063
 20
9.75
 11
12.7502441406
 21
12.75
  0
LINE
  8
1
 62
7
 10
13.6337890625
 20
4.21752929688
 11
10.6325683594
 21
7.15112304688
  0
LINE
  8
1
 62
7
 10
3.00024414063
 20
12.75
 11
3.00024414063
 21
6.75
  0
LINE
  8
1
 62
7
 10
12.0002441406
 20
9.75
 11
12.0002441406
 21
7.71044921875
  0
LINE
  8
1
 62
7
 10
9.00024414063
 20
9.1875
 11
9.00024414063
 21
7.3125
  0
LINE
  8
1
 62
7
 10
9.00024414063
 20
12.75
 11
3.00024414063
 21
12.75
  0
LINE
  8
1
 62
7
 10
9.00024414063
 20
11.25
 11
3.00024414063
 21
11.25
  0
LINE
  8
1
 62
7
 10
9.00024414063
 20
11.25
 11
3.00024414063
 21
11.25
  0
SOLID
  8
1
 62
7
 10
3.00024414063
 20
11.25
 11
4.50024414063
 21
11.625
 12
3.00024414063
 22
11.25
 13
4.50024414063
 23
10.875
  0
LINE
  8
1
 62
7
 10
4.50024414063
 20
11.625
 11
3.00024414063
 21
11.25
  0
LINE
  8
1
 62
7
 10
4.50024414063
 20
10.875
 11
3.00024414063
 21
11.25
  0
LINE
  8
1
 62
7
 10
12.0002441406
 20
9.75
 11
9.00024414063
 21
9.75
  0
SOLID
  8
1
 62
7
 10
9.00024414063
 20
11.25
 11
7.50024414063
 21
11.625
 12
9.00024414063
 22
11.25
 13
7.50024414063
 23
10.875
  0
LINE
  8
1
 62
7
 10
9.00024414063
 20
11.25
 11
7.50024414063
 21
11.625
  0
LINE
  8
1
 62
7
 10
9.00024414063
 20
11.25
 11
7.50024414063
 21
10.875
  0
LINE
  8
1
 62
7
 10
7.50024414063
 20
11.625
 11
7.50024414063
 21
10.875
  0
LINE
  8
1
 62
7
 10
7.39233398438
 20
1.35083007813
 11
3.96313476563
 21
2.41235351563
  0
LINE
  8
1
 62
7
 10
7.39233398438
 20
3.22290039063
 11
3.96313476563
 21
4.30346679688
  0
LINE
  8
1
 62
7
 10
9.00024414063
 20
6.75
 11
3.00024414063
 21
6.75
  0
LINE
  8
1
 62
7
 10
7.39233398438
 20
5.36499023438
 11
3.96313476563
 21
6.17529296875
  0
LINE
  8
1
 62
7
 10
7.39233398438
 20
5.36499023438
 11
3.96313476563
 21
4.30346679688
  0
LINE
  8
1
 62
7
 10
7.39233398438
 20
3.22290039063
 11
3.96313476563
 21
2.41235351563
  0
LINE
  8
1
 62
7
 10
9.00024414063
 20
2.25
 11
3.00024414063
 21
3.75
  0
LINE
  8
1
 62
7
 10
6.00024414063
 20
6.75
 11
3.96313476563
 21
6.17529296875
  0
SOLID
  8
1
 62
7
 10
7.50024414063
 20
3
 11
9.00024414063
 21
2.25
 12
7.50024414063
 22
3
 13
7.3271484375
 23
2.31616210938
  0
LINE
  8
1
 62
7
 10
9.00024414063
 20
2.25
 11
7.50024414063
 21
3
  0
LINE
  8
1
 62
7
 10
9.00024414063
 20
2.25
 11
7.3271484375
 21
2.31616210938
  0
LINE
  8
1
 62
7
 10
7.39233398438
 20
1.35083007813
 11
3.96313476563
 21
0.540283203125
  0
LINE
  8
1
 62
7
 10
6.00024414063
 20
0
 11
3.96313476563
 21
0.540283203125
  0
LINE
  8
1
 62
7
 10
15.0002441406
 20
9.75
 11
12.0002441406
 21
9.75
  0
SOLID
  8
1
 62
7
 10
12.6003417969
 20
4.83764648438
 11
13.1003417969
 21
5.23559570313
 12
12.6003417969
 22
4.83764648438
 13
13.6337890625
 23
4.21752929688
  0
LINE
  8
1
 62
7
 10
13.6337890625
 20
4.21752929688
 11
13.1003417969
 21
5.23559570313
  0
LINE
  8
1
 62
7
 10
13.1003417969
 20
5.23559570313
 11
12.6159667969
 21
4.78051757813
  0
LINE
  8
1
 62
7
 10
13.6337890625
 20
4.21752929688
 11
12.6159667969
 21
4.78051757813
  0
LINE
  8
1
 62
7
 10
9.00024414063
 20
12.75
 11
9.00024414063
 21
6.75
  0
POLYLINE
  8
1
 62
7
 70
1
 66
1
 40
0.1875
 41
0.1875
  0
VERTEX
  8
1
 10
11.9064941406
 20
9.75
 42
1
  0
VERTEX
  8
1
 10
12.0939941406
 20
9.75
 42
1
  0
SEQEND
  8
1
  0
TEXT
  8
1
 62
7
 40
1.5
  1
2
  7
STANDARD
 72
1
 10
15.0002441406
 20
11.3928222656
 11
15.0002441406
 21
11.3928222656
  0
TEXT
  8
1
 62
7
 40
1.5
  1
1
  7
STANDARD
 72
1
 10
0.000244140625
 20
12.8928222656
 11
0.000244140625
 21
12.8928222656
  0
TEXT
  8
1
 62
7
 40
1.5
  1
3
  7
STANDARD
 72
1
 10
0
 20
5.76782226563
 11
0
 21
5.76782226563
  0
ENDBLK
  8
0
  0
BLOCK
  8
0
  2
B14
 70
0
 10
0
 20
0
  0
TEXT
  8
TEXT
 62
7
 40
2
  1
1V1
  7
STANDARD
 72
1
 10
3.875
 20
1.73193359375
 11
3.875
 21
1.73193359375
  0
ENDBLK
  8
0
  0
BLOCK
  8
0
  2
B15
 70
0
 10
0
 20
0
  0
TEXT
  8
TEXT
 62
7
 40
2
  1
1V2
  7
STANDARD
 72
1
 10
3.875
 20
1.73193359375
 11
3.875
 21
1.73193359375
  0
ENDBLK
  8
0
  0
BLOCK
  8
0
  2
B16
 70
0
 10
0
 20
0
  0
TEXT
  8
TEXT
 62
7
 40
2
  1
2V2
  7
STANDARD
 72
1
 10
3.875
 20
1.73193359375
 11
3.875
 21
1.73193359375
  0
ENDBLK
  8
0
  0
BLOCK
  8
0
  2
B17
 70
0
 10
0
 20
0
  0
TEXT
  8
TEXT
 62
7
 40
2
  1
2V1
  7
STANDARD
 72
1
 10
3.875
 20
1.73193359375
 11
3.875
 21
1.73193359375
  0
ENDBLK
  8
0
  0
BLOCK
  8
0
  2
B18
 70
0
 10
0
 20
0
  0
LINE
  8
TEXT
 62
7
  6
GESTRICHELT
 10
0
 20
77.25
 11
78.5
 21
77.25
  0
LINE
  8
TEXT
 62
7
  6
GESTRICHELT
 10
0
 20
77.25
 11
0
 21
0
  0
LINE
  8
TEXT
 62
7
  6
GESTRICHELT
 10
0
 20
0
 11
78.5
 21
0
  0
LINE
  8
TEXT
 62
7
  6
GESTRICHELT
 10
78.5
 20
77.25
 11
78.5
 21
0
  0
ENDBLK
  8
0
  0
ENDSEC
  0
SECTION
  2
ENTITIES
  0
INSERT
  8
1
  2
B2
 10
2.5
 20
10.75
  0
INSERT
  8
1
  2
B3
 10
49.5
 20
67.75
  0
INSERT
  8
1
  2
B4
 10
47.9523925781
 20
52.7502441406
  0
INSERT
  8
1
  2
B5
 10
59.9523925781
 20
52.7502441406
  0
INSERT
  8
1
  2
B6
 10
40
 20
33.25
  0
INSERT
  8
1
  2
B7
 10
115.5
 20
67.75
  0
INSERT
  8
1
  2
B8
 10
113.952392578
 20
52.7502441406
  0
INSERT
  8
1
  2
B9
 10
125.952392578
 20
52.7502441406
  0
INSERT
  8
1
  2
B10
 10
106
 20
33.25
  0
INSERT
  8
1
  2
B11
 10
55.4523925781
 20
16.7502441406
  0
INSERT
  8
1
  2
B12
 10
56.5
 20
10.75
  0
INSERT
  8
1
  2
B13
 10
24.9997558594
 20
2.5
  0
INSERT
  8
1
  2
B18
 10
82
 20
8
  0
INSERT
  8
1
  2
B14
 10
41.6181640625
 20
56.908203125
  0
INSERT
  8
1
  2
B15
 10
67.6538085938
 20
57.5930175781
  0
INSERT
  8
1
  2
B16
 10
134.468261719
 20
58.1232910156
  0
INSERT
  8
1
  2
B17
 10
106.540527344
 20
57.2395019531
  0
INSERT
  8
1
  2
B1
 10
-31.75
 20
0
  0
ENDSEC
  0
EOF
